<svg width="22" height="22" viewBox="0 0 22 22" fill="none" xmlns="http://www.w3.org/2000/svg">
<path fill-rule="evenodd" clip-rule="evenodd" d="M12.1922 2.58685e-07H9.80418C9.0035 2.58685e-07 8.23436 0.312218 7.66617 0.869882C7.09337 1.43204 6.77215 2.19728 6.77607 2.99539C6.76829 3.51215 6.31096 3.95244 5.73832 3.95238C5.61762 3.95112 5.49349 3.92511 5.37752 3.87656L5.26469 3.82057C3.8047 3.0033 1.96132 3.48976 1.12296 4.91098L0.423662 6.03324C-0.434276 7.48703 0.0661008 9.31984 1.5195 10.1457C1.8402 10.3265 2.03247 10.6518 2.03247 11C2.03247 11.3482 1.84022 11.6735 1.52226 11.8528C0.0677408 12.6747 -0.434003 14.506 0.411521 15.9372L1.08537 17.0724C1.46957 17.75 2.1277 18.2601 2.90319 18.4753C3.6051 18.6702 4.35274 18.6094 5.01009 18.3081L5.20445 18.2105C5.45712 18.0666 5.74258 18.0292 6.01012 18.0992C6.27487 18.1684 6.49776 18.336 6.63043 18.5625C6.72089 18.7117 6.76472 18.8646 6.76637 19.0202C6.76631 20.6665 8.13159 22 9.80418 22H12.1926C13.8596 22 15.2224 20.6752 15.2304 19.0239C15.2292 18.7574 15.3337 18.5092 15.5233 18.3241C15.7173 18.1345 15.9843 18.0273 16.2635 18.0286C16.4233 18.033 16.5998 18.0813 16.7558 18.1683C18.1961 18.9789 20.0382 18.499 20.8814 17.0831L21.5763 15.952C21.9939 15.2522 22.107 14.4295 21.8962 13.6575C21.7101 12.9758 21.2848 12.383 20.6986 11.9825L20.5108 11.8647C20.2375 11.7101 20.068 11.4944 19.9997 11.2442C19.9322 10.9973 19.9683 10.7347 20.101 10.5122C20.1912 10.3585 20.3176 10.235 20.4716 10.1489L20.629 10.0527C21.908 9.21801 22.3577 7.57657 21.675 6.22735L21.6455 6.17298C21.6283 6.13209 21.6082 6.09226 21.5855 6.05378L20.9225 4.92997C20.0842 3.5088 18.2408 3.02236 16.794 3.83214C16.5453 3.97516 16.2587 4.01437 15.9891 3.94601C15.7225 3.8784 15.4968 3.71177 15.3608 3.48522C15.2759 3.34549 15.2321 3.19252 15.2304 3.03682C15.254 2.26398 14.9405 1.47739 14.3634 0.897625C13.7911 0.322591 13.0082 -0.000333645 12.1922 2.58685e-07ZM9.80418 2H12.1926C12.4785 1.99988 12.7504 2.11204 12.9459 2.30848C13.1049 2.46827 13.2022 2.67241 13.2257 2.8878L13.2309 3.01812C13.2361 3.57356 13.3806 4.07766 13.6488 4.51921C14.0551 5.19588 14.7214 5.68784 15.4975 5.88464C16.2706 6.08069 17.0914 5.9684 17.7811 5.57152L17.8888 5.51923C18.3636 5.32175 18.9367 5.49988 19.1999 5.94619L19.832 7.02L19.8608 7.07596C20.1326 7.54105 19.9708 8.13161 19.4872 8.40795C19.0318 8.66272 18.6465 9.03894 18.3796 9.49407C17.9725 10.1765 17.8595 10.9991 18.0703 11.7711C18.2628 12.4758 18.7099 13.0831 19.3223 13.4824L19.6069 13.6577C19.7664 13.7678 19.9064 13.963 19.9669 14.1844C20.0343 14.4312 19.9981 14.6938 19.8654 14.9162L19.1702 16.048C18.8778 16.5387 18.2354 16.7061 17.7338 16.4238C17.2919 16.177 16.7986 16.0421 16.2945 16.0289C15.4699 16.0248 14.697 16.3353 14.1257 16.8934C13.5498 17.4561 13.2266 18.2234 13.2304 19.0239C13.2278 19.5541 12.7691 20 12.1926 20H9.80418C9.26432 20 8.8281 19.6091 8.77234 19.1166L8.76632 19.0096C8.76078 18.4837 8.61628 17.9796 8.34798 17.5379C7.95423 16.8655 7.29139 16.3668 6.51596 16.1642C5.74375 15.9623 4.92112 16.0701 4.22896 16.4646C3.99967 16.59 3.70892 16.6234 3.43817 16.5482C3.17042 16.4739 2.94662 16.3004 2.81504 16.0685L2.1324 14.9181C1.87967 14.4903 2.00091 13.9514 2.40679 13.6577L2.50547 13.5945C3.44793 13.0629 4.03247 12.074 4.03247 11C4.03247 9.92599 3.44786 8.93697 2.50469 8.40515C2.02094 8.13027 1.85876 7.53624 2.1338 7.07L2.83311 5.94772C3.1291 5.44651 3.77189 5.27688 4.27477 5.55834C4.70659 5.8088 5.21227 5.94709 5.72806 5.95233C7.39376 5.95255 8.75186 4.64507 8.77595 3.00517C8.77479 2.7296 8.87863 2.48223 9.06709 2.29727C9.26011 2.10783 9.52573 2 9.80418 2ZM11 7C8.79088 7 7.00002 8.79086 7.00002 11C7.00002 13.2091 8.79088 15 11 15C13.2092 15 15 13.2091 15 11C15 8.79086 13.2092 7 11 7ZM11 9C12.1046 9 13 9.89543 13 11C13 12.1046 12.1046 13 11 13C9.89545 13 9.00002 12.1046 9.00002 11C9.00002 9.89543 9.89545 9 11 9Z" fill="#808080"/>
</svg>
