<svg width="20" height="17" viewBox="0 0 20 17" fill="none" xmlns="http://www.w3.org/2000/svg">
<path d="M14 1.5C14 2.32843 13.3284 3 12.5 3C11.6716 3 11 2.32843 11 1.5C11 0.671573 11.6716 0 12.5 0C13.3284 0 14 0.671573 14 1.5Z" fill="#808080"/>
<path fill-rule="evenodd" clip-rule="evenodd" d="M8.20711 0.792893C8.59763 1.18342 8.59763 1.81658 8.20711 2.20711L5.20711 5.20711C4.81658 5.59763 4.18342 5.59763 3.79289 5.20711C3.40237 4.81658 3.40237 4.18342 3.79289 3.79289L6.79289 0.792893C7.18342 0.402369 7.81658 0.402369 8.20711 0.792893ZM9.29289 3.29289C9.68342 2.90237 10.3166 2.90237 10.7071 3.29289L12.5924 5.17815L14.4472 6.10557C14.9412 6.35256 15.1414 6.95324 14.8944 7.44721C14.6474 7.94119 14.0468 8.14142 13.5528 7.89443L11.5528 6.89443C11.4567 6.84636 11.3689 6.78311 11.2929 6.70711L10 5.41421L8.56964 6.84457L10.5547 8.16795C10.8329 8.35342 11 8.66565 11 9V13C11 13.5523 10.5523 14 10 14C9.44772 14 9 13.5523 9 13V9.53518L6.4453 7.83205C6.19602 7.66587 6.03439 7.39667 6.00487 7.09854C5.97535 6.8004 6.08105 6.50474 6.29289 6.29289L9.29289 3.29289Z" fill="#808080"/>
<path fill-rule="evenodd" clip-rule="evenodd" d="M4 11C2.89543 11 2 11.8954 2 13C2 14.1046 2.89543 15 4 15C5.10457 15 6 14.1046 6 13C6 11.8954 5.10457 11 4 11ZM0 13C0 10.7909 1.79086 9 4 9C6.20914 9 8 10.7909 8 13C8 15.2091 6.20914 17 4 17C1.79086 17 0 15.2091 0 13Z" fill="#808080"/>
<path fill-rule="evenodd" clip-rule="evenodd" d="M16 11C14.8954 11 14 11.8954 14 13C14 14.1046 14.8954 15 16 15C17.1046 15 18 14.1046 18 13C18 11.8954 17.1046 11 16 11ZM12 13C12 10.7909 13.7909 9 16 9C18.2091 9 20 10.7909 20 13C20 15.2091 18.2091 17 16 17C13.7909 17 12 15.2091 12 13Z" fill="#808080"/>
</svg>
